#!OML:ASF X:\für Bonn\!DataBase\2005_08_11_Bastian_Final\c3d\Bastian.ASF
:FULLY-SPECIFIED
:DEGREES
106
root -1.49146 14.0708 2.43252 173.3 -4.9602 -174.216
lowerback 28.4804 -0.345077 2.15597
upperback 6.20049 -1.15553 2.06167
thorax -8.74398 -1.22386 1.56702
lowerneck -11.7481 -4.43388 -5.12949
upperneck -11.7218 -6.41513 13.9948
head -0.89378 -3.92603 4.91753
rclavicle -6.21202e-015 2.40529e-014
rhumerus 73.9733 8.69386 18.2656
rradius 40.5211
rwrist -71.514
rhand -51.6818 -5.90756
rfingers 7.12502
rthumb -24.2024 -34.4004
lclavicle -6.21202e-015 2.40529e-014
lhumerus 70.8837 -17.1447 -32.0482
lradius 32.1597
lwrist 29.9285
lhand -48.7571 24.8497
lfingers 7.12502
lthumb -21.3957 53.6883
rfemur -35.9458 -3.62299 28.0076
rtibia 87.1761
rfoot -37.0878 -9.82128
rtoes -4.47714
lfemur -36.0038 2.6173 -14.4418
ltibia 88.6823
lfoot -37.3575 -9.10813
ltoes -7.32048
107
root -1.496 14.2873 2.42199 173.721 -5.02234 -174.214
lowerback 27.8204 -0.376474 2.09551
upperback 6.12597 -1.17876 2.05599
thorax -8.50166 -1.21123 1.58048
lowerneck -11.8839 -4.43811 -4.99817
upperneck -11.5771 -6.44144 13.9189
head -0.835979 -3.93076 4.86386
rclavicle 6.06293e-015 -5.96354e-016
rhumerus 74.0685 8.96543 17.6314
rradius 40.3445
rwrist -70.819
rhand -51.6035 -6.04499
rfingers 7.12502
rthumb -24.1274 -34.5478
lclavicle 6.06293e-015 -5.96354e-016
lhumerus 70.9546 -17.0498 -32.0288
lradius 32.1584
lwrist 29.8451
lhand -48.5217 24.7946
lfingers 7.12502
lthumb -21.1697 53.6588
rfemur -35.0351 -3.55819 27.9096
rtibia 84.7416
rfoot -36.3826 -9.40207
rtoes -3.89411
lfemur -35.061 2.357 -14.5103
ltibia 86.0497
lfoot -36.5541 -8.72618
ltoes -7.66283
108
root -1.5007 14.5013 2.40948 174.142 -5.06591 -174.216
lowerback 27.1552 -0.407722 2.03971
upperback 6.03178 -1.19625 2.0451
thorax -8.27687 -1.19456 1.58371
lowerneck -11.9739 -4.461 -4.88595
upperneck -11.4188 -6.4861 13.8433
head -0.778867 -3.94199 4.81328
rclavicle 1.39149e-015 1.25234e-014
rhumerus 74.1744 9.31752 16.7843
rradius 40.0808
rwrist -69.8894
rhand -51.3979 -6.19286
rfingers 7.12502
rthumb -23.9302 -34.7217
lclavicle 1.39149e-015 1.25234e-014
lhumerus 71.08 -17.0093 -32.0555
lradius 32.1737
lwrist 29.8802
lhand -48.3218 24.7216
lfingers 7.12502
lthumb -20.9776 53.6071
rfemur -34.1094 -3.48834 27.8132
rtibia 82.2973
rfoot -35.6088 -9.00141
rtoes -3.31494
lfemur -34.1157 2.10864 -14.5723
ltibia 83.4192
lfoot -35.6694 -8.36766
ltoes -7.93485
109
root -1.50468 14.7092 2.39498 174.497 -5.11228 -174.194
lowerback 26.5408 -0.440726 2.02765
upperback 5.94892 -1.20986 2.01681
thorax -8.06334 -1.17947 1.54286
lowerneck -12.082 -4.48918 -4.68413
upperneck -11.2173 -6.54874 13.6991
head -0.71127 -3.96042 4.72456
rclavicle 3.53837e-014 -2.46493e-014
rhumerus 74.2612 9.73717 15.7285
rradius 39.7111
rwrist -68.7352
rhand -51.0745 -6.3639
rfingers 7.12502
rthumb -23.6201 -34.9331
lclavicle 3.53837e-014 -2.46493e-014
lhumerus 71.2528 -16.961 -32.1518
lradius 32.197
lwrist 29.8792
lhand -48.1031 24.634
lfingers 7.12502
lthumb -20.7674 53.5427
rfemur -33.1176 -3.43794 27.7549
rtibia 79.8494
rfoot -34.7961 -8.67452
rtoes -2.88184
lfemur -33.0926 1.89136 -14.5904
ltibia 80.7918
lfoot -34.747 -8.05359
ltoes -8.06228
110
root -1.50886 14.9129 2.37861 174.845 -5.17469 -174.217
lowerback 25.9359 -0.478611 1.94114
upperback 5.84201 -1.24366 1.99741
thorax -7.8784 -1.17096 1.56214
lowerneck -12.1749 -4.52478 -4.53719
upperneck -10.9481 -6.60977 13.5794
head -0.623053 -3.96994 4.65102
rclavicle 2.78299e-015 1.59028e-015
rhumerus 74.387 10.2207 14.5423
rradius 39.334
rwrist -67.5281
rhand -50.6761 -6.49072
rfingers 7.12502
rthumb -23.2379 -35.1087
lclavicle 2.78299e-015 1.59028e-015
lhumerus 71.452 -16.9918 -32.4322
lradius 32.2736
lwrist 30.1077
lhand -47.9363 24.604
lfingers 7.12502
lthumb -20.6072 53.5301
rfemur -32.1295 -3.43114 27.6539
rtibia 77.4174
rfoot -33.9785 -8.43377
rtoes -2.75117
lfemur -32.0639 1.66826 -14.6624
ltibia 78.1778
lfoot -33.8388 -7.71529
ltoes -8.37824
111
root -1.51306 15.1089 2.36032 175.14 -5.20377 -174.218
lowerback 25.3568 -0.505354 1.88805
upperback 5.75362 -1.26045 1.97435
thorax -7.68444 -1.15799 1.55327
lowerneck -12.2966 -4.56646 -4.3735
upperneck -10.6349 -6.68084 13.436
head -0.51845 -3.98062 4.56531
rclavicle 2.56432e-014 -1.45113e-014
rhumerus 74.5024 10.7028 13.6706
rradius 39.0318
rwrist -66.6216
rhand -50.3358 -6.62913
rfingers 7.12502
rthumb -22.9113 -35.2879
lclavicle 2.56432e-014 -1.45113e-014
lhumerus 71.6691 -17.0366 -32.5844
lradius 32.3094
lwrist 30.2063
lhand -47.7965 24.5877
lfingers 7.12502
lthumb -20.4728 53.5283
rfemur -31.0969 -3.42597 27.5878
rtibia 75.0063
rfoot -33.1273 -8.1894
rtoes -2.65565
lfemur -30.9817 1.5032 -14.6957
ltibia 75.5936
lfoot -32.8341 -7.41697
ltoes -8.47521
112
root -1.5169 15.2972 2.34054 175.385 -5.2315 -174.245
lowerback 24.8221 -0.52248 1.80721
upperback 5.66319 -1.27231 1.94825
thorax -7.5134 -1.14321 1.55717
lowerneck -12.4855 -4.64057 -4.20676
upperneck -10.2082 -6.79455 13.2651
head -0.368087 -4.00173 4.46416
rclavicle -1.09332e-014 2.48481e-014
rhumerus 74.601 11.227 13.029
rradius 38.8359
rwrist -65.9493
rhand -50.0452 -6.74401
rfingers 7.12502
rthumb -22.6325 -35.4371
lclavicle -1.09332e-014 2.48481e-014
lhumerus 71.8953 -17.1424 -32.5097
lradius 32.3
lwrist 30.1015
lhand -47.6314 24.5088
lfingers 7.12502
lthumb -20.3142 53.4664
rfemur -30.0234 -3.4384 27.4924
rtibia 72.6388
rfoot -32.3348 -7.96316
rtoes -2.74404
lfemur -29.8419 1.34628 -14.7542
ltibia 73.0354
lfoot -31.7838 -7.13952
ltoes -8.70605
